<svg aria-roledescription="er" viewBox="0 0 469.2305603027344 320" style="max-width: 469.231px; background-color: white;" xmlns:xlink="http://www.w3.org/1999/xlink" xmlns="http://www.w3.org/2000/svg" width="100%" id="mermaid-0"><style>#mermaid-0{font-family:"trebuchet ms",verdana,arial,sans-serif;font-size:16px;fill:#000000;}#mermaid-0 .error-icon{fill:#552222;}#mermaid-0 .error-text{fill:#552222;stroke:#552222;}#mermaid-0 .edge-thickness-normal{stroke-width:2px;}#mermaid-0 .edge-thickness-thick{stroke-width:3.5px;}#mermaid-0 .edge-pattern-solid{stroke-dasharray:0;}#mermaid-0 .edge-pattern-dashed{stroke-dasharray:3;}#mermaid-0 .edge-pattern-dotted{stroke-dasharray:2;}#mermaid-0 .marker{fill:#000000;stroke:#000000;}#mermaid-0 .marker.cross{stroke:#000000;}#mermaid-0 svg{font-family:"trebuchet ms",verdana,arial,sans-serif;font-size:16px;}#mermaid-0 .entityBox{fill:#cde498;stroke:#13540c;}#mermaid-0 .attributeBoxOdd{fill:#ffffff;stroke:#13540c;}#mermaid-0 .attributeBoxEven{fill:#f2f2f2;stroke:#13540c;}#mermaid-0 .relationshipLabelBox{fill:hsl(78.1578947368, 58.4615384615%, 84.5098039216%);opacity:0.7;background-color:hsl(78.1578947368, 58.4615384615%, 84.5098039216%);}#mermaid-0 .relationshipLabelBox rect{opacity:0.5;}#mermaid-0 .relationshipLine{stroke:#000000;}#mermaid-0 .entityTitleText{text-anchor:middle;font-size:18px;fill:#000000;}#mermaid-0 :root{--mermaid-font-family:"trebuchet ms",verdana,arial,sans-serif;}</style><g/><defs><marker orient="auto" markerHeight="18" markerWidth="18" refY="9" refX="0" id="ONLY_ONE_START"><path d="M9,0 L9,18 M15,0 L15,18" fill="none" stroke="gray"/></marker></defs><defs><marker orient="auto" markerHeight="18" markerWidth="18" refY="9" refX="18" id="ONLY_ONE_END"><path d="M3,0 L3,18 M9,0 L9,18" fill="none" stroke="gray"/></marker></defs><defs><marker orient="auto" markerHeight="18" markerWidth="30" refY="9" refX="0" id="ZERO_OR_ONE_START"><circle r="6" cy="9" cx="21" fill="white" stroke="gray"/><path d="M9,0 L9,18" fill="none" stroke="gray"/></marker></defs><defs><marker orient="auto" markerHeight="18" markerWidth="30" refY="9" refX="30" id="ZERO_OR_ONE_END"><circle r="6" cy="9" cx="9" fill="white" stroke="gray"/><path d="M21,0 L21,18" fill="none" stroke="gray"/></marker></defs><defs><marker orient="auto" markerHeight="36" markerWidth="45" refY="18" refX="18" id="ONE_OR_MORE_START"><path d="M0,18 Q 18,0 36,18 Q 18,36 0,18 M42,9 L42,27" fill="none" stroke="gray"/></marker></defs><defs><marker orient="auto" markerHeight="36" markerWidth="45" refY="18" refX="27" id="ONE_OR_MORE_END"><path d="M3,9 L3,27 M9,18 Q27,0 45,18 Q27,36 9,18" fill="none" stroke="gray"/></marker></defs><defs><marker orient="auto" markerHeight="36" markerWidth="57" refY="18" refX="18" id="ZERO_OR_MORE_START"><circle r="6" cy="18" cx="48" fill="white" stroke="gray"/><path d="M0,18 Q18,0 36,18 Q18,36 0,18" fill="none" stroke="gray"/></marker></defs><defs><marker orient="auto" markerHeight="36" markerWidth="57" refY="18" refX="39" id="ZERO_OR_MORE_END"><circle r="6" cy="18" cx="9" fill="white" stroke="gray"/><path d="M21,18 Q39,0 57,18 Q39,36 21,18" fill="none" stroke="gray"/></marker></defs><path style="stroke: gray; fill: none;" marker-start="url(#ZERO_OR_MORE_START)" marker-end="url(#ONLY_ONE_END)" d="M79.1875,88L79.1875,96.33333333333333C79.1875,104.66666666666667,79.1875,121.33333333333333,83.11831761006289,138C87.04913522012578,154.66666666666666,94.91077044025157,171.33333333333334,98.84158805031446,179.66666666666666L102.77240566037736,188" class="er relationshipLine"/><path style="stroke: gray; fill: none;" marker-start="url(#ZERO_OR_MORE_START)" marker-end="url(#ONLY_ONE_END)" d="M358.9865081423805,77L365.03809544396773,87.16666666666667C371.0896827455551,97.33333333333333,383.19285734872966,117.66666666666667,389.244444650317,139.83333333333334C395.2960319519043,162,395.2960319519043,186,395.2960319519043,198L395.2960319519043,210" class="er relationshipLine"/><path style="stroke: gray; fill: none;" marker-start="url(#ZERO_OR_MORE_START)" marker-end="url(#ONLY_ONE_END)" d="M314.7622226079305,77L301.2653938399421,87.16666666666667C287.7685650719537,97.33333333333333,260.7749075359768,117.66666666666667,239.0552996799381,136.16666666666666C217.33569182389934,154.66666666666666,200.89013364779873,171.33333333333334,192.66735455974842,179.66666666666666L184.4445754716981,188" class="er relationshipLine"/><g transform="translate(60.09246063232422,188 )" id="entity-habits-88e45759-8d1b-4359-9a3d-ffe80f992bc2"><rect height="112" width="138.19007873535156" y="0" x="0" class="er entityBox"/><text style="dominant-baseline: middle; text-anchor: middle; font-size: 12px;" transform="translate(69.09503936767578,12)" y="0" x="0" id="text-entity-habits-88e45759-8d1b-4359-9a3d-ffe80f992bc2" class="er entityLabel">habits</text><rect height="22" width="54.095550537109375" y="24" x="0" class="er attributeBoxOdd"/><text style="dominant-baseline: middle; font-size: 10.2px;" transform="translate(5,35)" y="0" x="0" id="text-entity-habits-88e45759-8d1b-4359-9a3d-ffe80f992bc2-attr-1-type" class="er entityLabel">String</text><rect height="22" width="61.40684509277344" y="24" x="54.095550537109375" class="er attributeBoxOdd"/><text style="dominant-baseline: middle; font-size: 10.2px;" transform="translate(59.095550537109375,35)" y="0" x="0" id="text-entity-habits-88e45759-8d1b-4359-9a3d-ffe80f992bc2-attr-1-name" class="er entityLabel">id</text><rect height="22" width="22.68768310546875" y="24" x="115.50239562988281" class="er attributeBoxOdd"/><text style="dominant-baseline: middle; font-size: 10.2px;" transform="translate(120.50239562988281,35)" y="0" x="0" id="text-entity-habits-88e45759-8d1b-4359-9a3d-ffe80f992bc2-attr-1-key" class="er entityLabel">PK</text><rect height="22" width="54.095550537109375" y="46" x="0" class="er attributeBoxEven"/><text style="dominant-baseline: middle; font-size: 10.2px;" transform="translate(5,57)" y="0" x="0" id="text-entity-habits-88e45759-8d1b-4359-9a3d-ffe80f992bc2-attr-2-type" class="er entityLabel">String</text><rect height="22" width="61.40684509277344" y="46" x="54.095550537109375" class="er attributeBoxEven"/><text style="dominant-baseline: middle; font-size: 10.2px;" transform="translate(59.095550537109375,57)" y="0" x="0" id="text-entity-habits-88e45759-8d1b-4359-9a3d-ffe80f992bc2-attr-2-name" class="er entityLabel">title</text><rect height="22" width="22.68768310546875" y="46" x="115.50239562988281" class="er attributeBoxEven"/><text style="dominant-baseline: middle; font-size: 10.2px;" transform="translate(120.50239562988281,57)" y="0" x="0" id="text-entity-habits-88e45759-8d1b-4359-9a3d-ffe80f992bc2-attr-2-key" class="er entityLabel"/><rect height="22" width="54.095550537109375" y="68" x="0" class="er attributeBoxOdd"/><text style="dominant-baseline: middle; font-size: 10.2px;" transform="translate(5,79)" y="0" x="0" id="text-entity-habits-88e45759-8d1b-4359-9a3d-ffe80f992bc2-attr-3-type" class="er entityLabel">String</text><rect height="22" width="61.40684509277344" y="68" x="54.095550537109375" class="er attributeBoxOdd"/><text style="dominant-baseline: middle; font-size: 10.2px;" transform="translate(59.095550537109375,79)" y="0" x="0" id="text-entity-habits-88e45759-8d1b-4359-9a3d-ffe80f992bc2-attr-3-name" class="er entityLabel">description</text><rect height="22" width="22.68768310546875" y="68" x="115.50239562988281" class="er attributeBoxOdd"/><text style="dominant-baseline: middle; font-size: 10.2px;" transform="translate(120.50239562988281,79)" y="0" x="0" id="text-entity-habits-88e45759-8d1b-4359-9a3d-ffe80f992bc2-attr-3-key" class="er entityLabel"/><rect height="22" width="54.095550537109375" y="90" x="0" class="er attributeBoxEven"/><text style="dominant-baseline: middle; font-size: 10.2px;" transform="translate(5,101)" y="0" x="0" id="text-entity-habits-88e45759-8d1b-4359-9a3d-ffe80f992bc2-attr-4-type" class="er entityLabel">DateTime</text><rect height="22" width="61.40684509277344" y="90" x="54.095550537109375" class="er attributeBoxEven"/><text style="dominant-baseline: middle; font-size: 10.2px;" transform="translate(59.095550537109375,101)" y="0" x="0" id="text-entity-habits-88e45759-8d1b-4359-9a3d-ffe80f992bc2-attr-4-name" class="er entityLabel">created_at</text><rect height="22" width="22.68768310546875" y="90" x="115.50239562988281" class="er attributeBoxEven"/><text style="dominant-baseline: middle; font-size: 10.2px;" transform="translate(120.50239562988281,101)" y="0" x="0" id="text-entity-habits-88e45759-8d1b-4359-9a3d-ffe80f992bc2-attr-4-key" class="er entityLabel"/></g><g transform="translate(20,20 )" id="entity-habitweekday-41afb041-7515-46f2-8379-c58e37bc796d"><rect height="68" width="118.375" y="0" x="0" class="er entityBox"/><text style="dominant-baseline: middle; text-anchor: middle; font-size: 12px;" transform="translate(59.1875,12)" y="0" x="0" id="text-entity-habitweekday-41afb041-7515-46f2-8379-c58e37bc796d" class="er entityLabel">habit_week_day</text><rect height="22" width="37.74244689941406" y="24" x="0" class="er attributeBoxOdd"/><text style="dominant-baseline: middle; font-size: 10.2px;" transform="translate(5,35)" y="0" x="0" id="text-entity-habitweekday-41afb041-7515-46f2-8379-c58e37bc796d-attr-1-type" class="er entityLabel">String</text><rect height="22" width="57.598480224609375" y="24" x="37.74244689941406" class="er attributeBoxOdd"/><text style="dominant-baseline: middle; font-size: 10.2px;" transform="translate(42.74244689941406,35)" y="0" x="0" id="text-entity-habitweekday-41afb041-7515-46f2-8379-c58e37bc796d-attr-1-name" class="er entityLabel">id</text><rect height="22" width="23.034072875976562" y="24" x="95.34092712402344" class="er attributeBoxOdd"/><text style="dominant-baseline: middle; font-size: 10.2px;" transform="translate(100.34092712402344,35)" y="0" x="0" id="text-entity-habitweekday-41afb041-7515-46f2-8379-c58e37bc796d-attr-1-key" class="er entityLabel">PK</text><rect height="22" width="37.74244689941406" y="46" x="0" class="er attributeBoxEven"/><text style="dominant-baseline: middle; font-size: 10.2px;" transform="translate(5,57)" y="0" x="0" id="text-entity-habitweekday-41afb041-7515-46f2-8379-c58e37bc796d-attr-2-type" class="er entityLabel">Int</text><rect height="22" width="57.598480224609375" y="46" x="37.74244689941406" class="er attributeBoxEven"/><text style="dominant-baseline: middle; font-size: 10.2px;" transform="translate(42.74244689941406,57)" y="0" x="0" id="text-entity-habitweekday-41afb041-7515-46f2-8379-c58e37bc796d-attr-2-name" class="er entityLabel">week_day</text><rect height="22" width="23.034072875976562" y="46" x="95.34092712402344" class="er attributeBoxEven"/><text style="dominant-baseline: middle; font-size: 10.2px;" transform="translate(100.34092712402344,57)" y="0" x="0" id="text-entity-habitweekday-41afb041-7515-46f2-8379-c58e37bc796d-attr-2-key" class="er entityLabel"/></g><g transform="translate(341.3615074157715,210 )" id="entity-days-677302fb-0678-420f-87a5-acd9c0340443"><rect height="68" width="107.86904907226562" y="0" x="0" class="er entityBox"/><text style="dominant-baseline: middle; text-anchor: middle; font-size: 12px;" transform="translate(53.93452453613281,12)" y="0" x="0" id="text-entity-days-677302fb-0678-420f-87a5-acd9c0340443" class="er entityLabel">days</text><rect height="22" width="54.095550537109375" y="24" x="0" class="er attributeBoxOdd"/><text style="dominant-baseline: middle; font-size: 10.2px;" transform="translate(5,35)" y="0" x="0" id="text-entity-days-677302fb-0678-420f-87a5-acd9c0340443-attr-1-type" class="er entityLabel">String</text><rect height="22" width="31.0858154296875" y="24" x="54.095550537109375" class="er attributeBoxOdd"/><text style="dominant-baseline: middle; font-size: 10.2px;" transform="translate(59.095550537109375,35)" y="0" x="0" id="text-entity-days-677302fb-0678-420f-87a5-acd9c0340443-attr-1-name" class="er entityLabel">id</text><rect height="22" width="22.68768310546875" y="24" x="85.18136596679688" class="er attributeBoxOdd"/><text style="dominant-baseline: middle; font-size: 10.2px;" transform="translate(90.18136596679688,35)" y="0" x="0" id="text-entity-days-677302fb-0678-420f-87a5-acd9c0340443-attr-1-key" class="er entityLabel">PK</text><rect height="22" width="54.095550537109375" y="46" x="0" class="er attributeBoxEven"/><text style="dominant-baseline: middle; font-size: 10.2px;" transform="translate(5,57)" y="0" x="0" id="text-entity-days-677302fb-0678-420f-87a5-acd9c0340443-attr-2-type" class="er entityLabel">DateTime</text><rect height="22" width="31.0858154296875" y="46" x="54.095550537109375" class="er attributeBoxEven"/><text style="dominant-baseline: middle; font-size: 10.2px;" transform="translate(59.095550537109375,57)" y="0" x="0" id="text-entity-days-677302fb-0678-420f-87a5-acd9c0340443-attr-2-name" class="er entityLabel">date</text><rect height="22" width="22.68768310546875" y="46" x="85.18136596679688" class="er attributeBoxEven"/><text style="dominant-baseline: middle; font-size: 10.2px;" transform="translate(90.18136596679688,57)" y="0" x="0" id="text-entity-days-677302fb-0678-420f-87a5-acd9c0340443-attr-2-key" class="er entityLabel"/></g><g transform="translate(295.2960319519043,31 )" id="entity-dayhabits-a7935933-f328-42f9-a4fa-f8f20d17d0a4"><rect height="46" width="100" y="0" x="0" class="er entityBox"/><text style="dominant-baseline: middle; text-anchor: middle; font-size: 12px;" transform="translate(50,12)" y="0" x="0" id="text-entity-dayhabits-a7935933-f328-42f9-a4fa-f8f20d17d0a4" class="er entityLabel">day_habits</text><rect height="22" width="44.39861551920573" y="24" x="0" class="er attributeBoxOdd"/><text style="dominant-baseline: middle; font-size: 10.2px;" transform="translate(5,35)" y="0" x="0" id="text-entity-dayhabits-a7935933-f328-42f9-a4fa-f8f20d17d0a4-attr-1-type" class="er entityLabel">String</text><rect height="22" width="25.911142985026043" y="24" x="44.39861551920573" class="er attributeBoxOdd"/><text style="dominant-baseline: middle; font-size: 10.2px;" transform="translate(49.39861551920573,35)" y="0" x="0" id="text-entity-dayhabits-a7935933-f328-42f9-a4fa-f8f20d17d0a4-attr-1-name" class="er entityLabel">id</text><rect height="22" width="29.69024149576823" y="24" x="70.30975850423177" class="er attributeBoxOdd"/><text style="dominant-baseline: middle; font-size: 10.2px;" transform="translate(75.30975850423177,35)" y="0" x="0" id="text-entity-dayhabits-a7935933-f328-42f9-a4fa-f8f20d17d0a4-attr-1-key" class="er entityLabel">PK</text></g><rect height="14" width="27.96875" y="132.72332763671875" x="69.55432891845703" class="er relationshipLabelBox"/><text style="text-anchor: middle; dominant-baseline: middle; font-size: 12px;" y="139.72332763671875" x="83.53870391845703" id="rel1" class="er relationshipLabel">habit</text><rect height="14" width="19.990234375" y="133.16226196289062" x="379.33837890625" class="er relationshipLabelBox"/><text style="text-anchor: middle; dominant-baseline: middle; font-size: 12px;" y="140.16226196289062" x="389.33349609375" id="rel2" class="er relationshipLabel">day</text><rect height="14" width="27.96875" y="122.49259948730469" x="233.03208923339844" class="er relationshipLabelBox"/><text style="text-anchor: middle; dominant-baseline: middle; font-size: 12px;" y="129.4925994873047" x="247.01646423339844" id="rel3" class="er relationshipLabel">habit</text></svg>